# xmcd
# Copyright (C) 1995-1998 Ti Kan
#
# Track frame offsets:
#       150
#       22547
#       42914
#       58676
#       79953
#       103046
#       118851
#       141541
#       165039
#       184511
#       201549
#       218954
#       238892
#       268486
#       292823
#       310253
#       330302
#
# Disc length: 4656 seconds
#
# Revision: 0
# Processed by: cddbd v1.5.2PL0 Copyright (c) Steve Scherf et al.
# Submitted via: CD-Import v1.0
#
DISCID=f8122e11
DTITLE=Rolf Und Alexandra Becker - Dickie Dick Dickens 2
DYEAR=57
DGENRE=
TTITLE0=Dickie Dick Dickens 2.01
TTITLE1=Dickie Dick Dickens 2.02
TTITLE2=Dickie Dick Dickens 2.03
TTITLE3=Dickie Dick Dickens 2.04
TTITLE4=Dickie Dick Dickens 2.05
TTITLE5=Dickie Dick Dickens 2.06
TTITLE6=Dickie Dick Dickens 2.07
TTITLE7=Dickie Dick Dickens 2.08
TTITLE8=Dickie Dick Dickens 2.09
TTITLE9=Dickie Dick Dickens 2.10
TTITLE10=Dickie Dick Dickens 2.11
TTITLE11=Dickie Dick Dickens 2.12
TTITLE12=Dickie Dick Dickens 2.13
TTITLE13=Dickie Dick Dickens 2.14
TTITLE14=Dickie Dick Dickens 2.15
TTITLE15=Dickie Dick Dickens 2.16
TTITLE16=Dickie Dick Dickens 2.17
EXTD=
EXTT0=
EXTT1=
EXTT2=
EXTT3=
EXTT4=
EXTT5=
EXTT6=
EXTT7=
EXTT8=
EXTT9=
EXTT10=
EXTT11=
EXTT12=
EXTT13=
EXTT14=
EXTT15=
EXTT16=
PLAYORDER=
